# Blender v2.79 (sub 0) OBJ File: 'tree2.blend'
# www.blender.org
o Cone
v 0.000000 1.703091 -1.843786
v 0.000000 5.390663 0.000000
v 0.359705 1.703091 -1.808358
v 0.705586 1.703091 -1.703436
v 1.024353 1.703091 -1.533052
v 1.303753 1.703091 -1.303753
v 1.533052 1.703091 -1.024352
v 1.703436 1.703091 -0.705586
v 1.808358 1.703091 -0.359705
v 1.843786 1.703091 -0.000000
v 1.808358 1.703091 0.359705
v 1.703436 1.703091 0.705586
v 1.533052 1.703091 1.024352
v 1.303753 1.703091 1.303753
v 1.024352 1.703091 1.533052
v 0.705586 1.703091 1.703436
v 0.359704 1.703091 1.808358
v -0.000001 1.703091 1.843786
v -0.359706 1.703091 1.808358
v -0.705587 1.703091 1.703436
v -1.024354 1.703091 1.533051
v -1.303754 1.703091 1.303753
v -1.533053 1.703091 1.024351
v -1.703437 1.703091 0.705585
v -1.808358 1.703091 0.359703
v -1.843786 1.703091 -0.000002
v -1.808358 1.703091 -0.359707
v -1.703435 1.703091 -0.705588
v -1.533051 1.703091 -1.024354
v -1.303752 1.703091 -1.303755
v -1.024351 1.703091 -1.533053
v -0.705584 1.703091 -1.703437
v -0.359702 1.703091 -1.808359
vn 0.0878 0.4455 -0.8910
vn 0.2599 0.4455 -0.8567
vn 0.4220 0.4455 -0.7896
vn 0.5680 0.4455 -0.6921
vn 0.6921 0.4455 -0.5680
vn 0.7896 0.4455 -0.4220
vn 0.8567 0.4455 -0.2599
vn 0.8910 0.4455 -0.0878
vn 0.8910 0.4455 0.0878
vn 0.8567 0.4455 0.2599
vn 0.7896 0.4455 0.4220
vn 0.6921 0.4455 0.5680
vn 0.5680 0.4455 0.6921
vn 0.4220 0.4455 0.7896
vn 0.2599 0.4455 0.8567
vn 0.0878 0.4455 0.8910
vn -0.0878 0.4455 0.8910
vn -0.2599 0.4455 0.8567
vn -0.4220 0.4455 0.7896
vn -0.5680 0.4455 0.6921
vn -0.6921 0.4455 0.5680
vn -0.7896 0.4455 0.4220
vn -0.8567 0.4455 0.2599
vn -0.8910 0.4455 0.0878
vn -0.8910 0.4455 -0.0878
vn -0.8567 0.4455 -0.2599
vn -0.7896 0.4455 -0.4220
vn -0.6921 0.4455 -0.5680
vn -0.5680 0.4455 -0.6921
vn -0.4220 0.4455 -0.7896
vn -0.2599 0.4455 -0.8567
vn -0.0878 0.4455 -0.8910
vn 0.0000 -1.0000 0.0000
s off
f 1//1 2//1 3//1
f 3//2 2//2 4//2
f 4//3 2//3 5//3
f 5//4 2//4 6//4
f 6//5 2//5 7//5
f 7//6 2//6 8//6
f 8//7 2//7 9//7
f 9//8 2//8 10//8
f 10//9 2//9 11//9
f 11//10 2//10 12//10
f 12//11 2//11 13//11
f 13//12 2//12 14//12
f 14//13 2//13 15//13
f 15//14 2//14 16//14
f 16//15 2//15 17//15
f 17//16 2//16 18//16
f 18//17 2//17 19//17
f 19//18 2//18 20//18
f 20//19 2//19 21//19
f 21//20 2//20 22//20
f 22//21 2//21 23//21
f 23//22 2//22 24//22
f 24//23 2//23 25//23
f 25//24 2//24 26//24
f 26//25 2//25 27//25
f 27//26 2//26 28//26
f 28//27 2//27 29//27
f 29//28 2//28 30//28
f 30//29 2//29 31//29
f 31//30 2//30 32//30
f 32//31 2//31 33//31
f 33//32 2//32 1//32
f 1//33 3//33 4//33 5//33 6//33 7//33 8//33 9//33 10//33 11//33 12//33 13//33 14//33 15//33 16//33 17//33 18//33 19//33 20//33 21//33 22//33 23//33 24//33 25//33 26//33 27//33 28//33 29//33 30//33 31//33 32//33 33//33
o Cylinder
v 0.000000 0.004693 -0.306935
v 0.000000 3.045866 -0.306935
v 0.059880 0.004693 -0.301037
v 0.059880 3.045866 -0.301037
v 0.117459 0.004693 -0.283571
v 0.117459 3.045866 -0.283571
v 0.170524 0.004693 -0.255207
v 0.170524 3.045866 -0.255207
v 0.217036 0.004693 -0.217036
v 0.217036 3.045866 -0.217036
v 0.255207 0.004693 -0.170524
v 0.255207 3.045866 -0.170524
v 0.283571 0.004693 -0.117459
v 0.283571 3.045866 -0.117459
v 0.301037 0.004693 -0.059880
v 0.301037 3.045866 -0.059880
v 0.306935 0.004693 -0.000000
v 0.306935 3.045866 -0.000000
v 0.301037 0.004693 0.059880
v 0.301037 3.045866 0.059880
v 0.283571 0.004693 0.117459
v 0.283571 3.045866 0.117459
v 0.255207 0.004693 0.170524
v 0.255207 3.045866 0.170524
v 0.217036 0.004693 0.217036
v 0.217036 3.045866 0.217036
v 0.170524 0.004693 0.255207
v 0.170524 3.045866 0.255207
v 0.117459 0.004693 0.283571
v 0.117459 3.045866 0.283571
v 0.059880 0.004693 0.301037
v 0.059880 3.045866 0.301037
v -0.000000 0.004693 0.306935
v -0.000000 3.045866 0.306935
v -0.059880 0.004693 0.301037
v -0.059880 3.045866 0.301037
v -0.117459 0.004693 0.283571
v -0.117459 3.045866 0.283571
v -0.170524 0.004693 0.255207
v -0.170524 3.045866 0.255207
v -0.217036 0.004693 0.217036
v -0.217036 3.045866 0.217036
v -0.255207 0.004693 0.170524
v -0.255207 3.045866 0.170524
v -0.283571 0.004693 0.117459
v -0.283571 3.045866 0.117459
v -0.301037 0.004693 0.059880
v -0.301037 3.045866 0.059880
v -0.306935 0.004693 -0.000000
v -0.306935 3.045866 -0.000000
v -0.301037 0.004693 -0.059880
v -0.301037 3.045866 -0.059880
v -0.283571 0.004693 -0.117459
v -0.283571 3.045866 -0.117459
v -0.255207 0.004693 -0.170524
v -0.255207 3.045866 -0.170524
v -0.217036 0.004693 -0.217036
v -0.217036 3.045866 -0.217036
v -0.170524 0.004693 -0.255207
v -0.170524 3.045866 -0.255207
v -0.117459 0.004693 -0.283571
v -0.117459 3.045866 -0.283571
v -0.059880 0.004693 -0.301037
v -0.059880 3.045866 -0.301037
vn 0.0980 0.0000 -0.9952
vn 0.2903 0.0000 -0.9569
vn 0.4714 0.0000 -0.8819
vn 0.6344 0.0000 -0.7730
vn 0.7730 0.0000 -0.6344
vn 0.8819 0.0000 -0.4714
vn 0.9569 0.0000 -0.2903
vn 0.9952 0.0000 -0.0980
vn 0.9952 0.0000 0.0980
vn 0.9569 0.0000 0.2903
vn 0.8819 0.0000 0.4714
vn 0.7730 0.0000 0.6344
vn 0.6344 0.0000 0.7730
vn 0.4714 0.0000 0.8819
vn 0.2903 0.0000 0.9569
vn 0.0980 0.0000 0.9952
vn -0.0980 0.0000 0.9952
vn -0.2903 0.0000 0.9569
vn -0.4714 0.0000 0.8819
vn -0.6344 0.0000 0.7730
vn -0.7730 0.0000 0.6344
vn -0.8819 0.0000 0.4714
vn -0.9569 0.0000 0.2903
vn -0.9952 0.0000 0.0980
vn -0.9952 0.0000 -0.0980
vn -0.9569 0.0000 -0.2903
vn -0.8819 0.0000 -0.4714
vn -0.7730 0.0000 -0.6344
vn -0.6344 0.0000 -0.7730
vn -0.4714 0.0000 -0.8819
vn 0.0000 1.0000 0.0000
vn -0.2903 0.0000 -0.9569
vn -0.0980 0.0000 -0.9952
vn 0.0000 -1.0000 0.0000
s off
f 34//34 35//34 37//34 36//34
f 36//35 37//35 39//35 38//35
f 38//36 39//36 41//36 40//36
f 40//37 41//37 43//37 42//37
f 42//38 43//38 45//38 44//38
f 44//39 45//39 47//39 46//39
f 46//40 47//40 49//40 48//40
f 48//41 49//41 51//41 50//41
f 50//42 51//42 53//42 52//42
f 52//43 53//43 55//43 54//43
f 54//44 55//44 57//44 56//44
f 56//45 57//45 59//45 58//45
f 58//46 59//46 61//46 60//46
f 60//47 61//47 63//47 62//47
f 62//48 63//48 65//48 64//48
f 64//49 65//49 67//49 66//49
f 66//50 67//50 69//50 68//50
f 68//51 69//51 71//51 70//51
f 70//52 71//52 73//52 72//52
f 72//53 73//53 75//53 74//53
f 74//54 75//54 77//54 76//54
f 76//55 77//55 79//55 78//55
f 78//56 79//56 81//56 80//56
f 80//57 81//57 83//57 82//57
f 82//58 83//58 85//58 84//58
f 84//59 85//59 87//59 86//59
f 86//60 87//60 89//60 88//60
f 88//61 89//61 91//61 90//61
f 90//62 91//62 93//62 92//62
f 92//63 93//63 95//63 94//63
f 37//64 35//64 97//64 95//64 93//64 91//64 89//64 87//64 85//64 83//64 81//64 79//64 77//64 75//64 73//64 71//64 69//64 67//64 65//64 63//64 61//64 59//64 57//64 55//64 53//64 51//64 49//64 47//64 45//64 43//64 41//64 39//64
f 94//65 95//65 97//65 96//65
f 96//66 97//66 35//66 34//66
f 34//67 36//67 38//67 40//67 42//67 44//67 46//67 48//67 50//67 52//67 54//67 56//67 58//67 60//67 62//67 64//67 66//67 68//67 70//67 72//67 74//67 76//67 78//67 80//67 82//67 84//67 86//67 88//67 90//67 92//67 94//67 96//67
o Cone.001
v 0.000000 3.798864 -1.277010
v 0.000000 6.352884 0.000000
v 0.249132 3.798864 -1.252473
v 0.488691 3.798864 -1.179803
v 0.709469 3.798864 -1.061795
v 0.902982 3.798864 -0.902982
v 1.061795 3.798864 -0.709469
v 1.179803 3.798864 -0.488691
v 1.252473 3.798864 -0.249132
v 1.277010 3.798864 -0.000000
v 1.252473 3.798864 0.249132
v 1.179803 3.798864 0.488690
v 1.061795 3.798864 0.709469
v 0.902982 3.798864 0.902982
v 0.709469 3.798864 1.061795
v 0.488690 3.798864 1.179803
v 0.249132 3.798864 1.252473
v -0.000000 3.798864 1.277010
v -0.249133 3.798864 1.252473
v -0.488691 3.798864 1.179803
v -0.709469 3.798864 1.061795
v -0.902983 3.798864 0.902982
v -1.061795 3.798864 0.709468
v -1.179804 3.798864 0.488690
v -1.252473 3.798864 0.249131
v -1.277010 3.798864 -0.000001
v -1.252472 3.798864 -0.249134
v -1.179803 3.798864 -0.488692
v -1.061794 3.798864 -0.709470
v -0.902981 3.798864 -0.902984
v -0.709467 3.798864 -1.061796
v -0.488689 3.798864 -1.179804
v -0.249130 3.798864 -1.252473
vn 0.0878 0.4455 -0.8910
vn 0.2599 0.4455 -0.8567
vn 0.4220 0.4455 -0.7896
vn 0.5680 0.4455 -0.6921
vn 0.6921 0.4455 -0.5680
vn 0.7896 0.4455 -0.4220
vn 0.8567 0.4455 -0.2599
vn 0.8910 0.4455 -0.0878
vn 0.8910 0.4455 0.0878
vn 0.8567 0.4455 0.2599
vn 0.7896 0.4455 0.4220
vn 0.6921 0.4455 0.5680
vn 0.5680 0.4455 0.6921
vn 0.4220 0.4455 0.7896
vn 0.2599 0.4455 0.8567
vn 0.0878 0.4455 0.8910
vn -0.0878 0.4455 0.8910
vn -0.2599 0.4455 0.8567
vn -0.4220 0.4455 0.7896
vn -0.5680 0.4455 0.6921
vn -0.6921 0.4455 0.5680
vn -0.7896 0.4455 0.4220
vn -0.8567 0.4455 0.2599
vn -0.8910 0.4455 0.0878
vn -0.8910 0.4455 -0.0878
vn -0.8567 0.4455 -0.2599
vn -0.7896 0.4455 -0.4220
vn -0.6921 0.4455 -0.5680
vn -0.5680 0.4455 -0.6921
vn -0.4220 0.4455 -0.7896
vn -0.2599 0.4455 -0.8567
vn -0.0878 0.4455 -0.8910
vn 0.0000 -1.0000 -0.0000
s off
f 98//68 99//68 100//68
f 100//69 99//69 101//69
f 101//70 99//70 102//70
f 102//71 99//71 103//71
f 103//72 99//72 104//72
f 104//73 99//73 105//73
f 105//74 99//74 106//74
f 106//75 99//75 107//75
f 107//76 99//76 108//76
f 108//77 99//77 109//77
f 109//78 99//78 110//78
f 110//79 99//79 111//79
f 111//80 99//80 112//80
f 112//81 99//81 113//81
f 113//82 99//82 114//82
f 114//83 99//83 115//83
f 115//84 99//84 116//84
f 116//85 99//85 117//85
f 117//86 99//86 118//86
f 118//87 99//87 119//87
f 119//88 99//88 120//88
f 120//89 99//89 121//89
f 121//90 99//90 122//90
f 122//91 99//91 123//91
f 123//92 99//92 124//92
f 124//93 99//93 125//93
f 125//94 99//94 126//94
f 126//95 99//95 127//95
f 127//96 99//96 128//96
f 128//97 99//97 129//97
f 129//98 99//98 130//98
f 130//99 99//99 98//99
f 98//100 100//100 101//100 102//100 103//100 104//100 105//100 106//100 107//100 108//100 109//100 110//100 111//100 112//100 113//100 114//100 115//100 116//100 117//100 118//100 119//100 120//100 121//100 122//100 123//100 124//100 125//100 126//100 127//100 128//100 129//100 130//100
